inDegrees=no
num_controls=7
num_derivatives=13
num_iterations=103
num_multipliers=7
num_parameters=0
num_slacks=7
num_states=26
objective=5.455895
objective_accelerations=0.800026
objective_balance=0.037632
objective_effort=0.245574
objective_height=4.271482
objective_ligament=0.101181
solver_duration=1146.727488
status=Solve_Succeeded
success=true
DataType=double
version=3
OpenSimVersion=4.4-2022-07-23-0e9fedc
endheader
time	/jointset/ground_pelvis/pelvis_tilt/value	/jointset/ground_pelvis/pelvis_tx/value	/jointset/ground_pelvis/pelvis_ty/value	/jointset/hip_l/hip_flexion_l/value	/jointset/hip_l/hip_adduction_l/value	/jointset/hip_l/hip_rotation_l/value	/jointset/back/lumbar_extension/value	/jointset/patellofemoral_l/patellar_flexion_l/value	/jointset/knee_l/knee_flexion_l/value	/jointset/knee_l/knee_adduction_l/value	/jointset/knee_l/knee_rotation_l/value	/jointset/ankle_l/ankle_angle_l/value	/jointset/subtalar_l/subtalar_angle_l/value	/jointset/ground_pelvis/pelvis_tilt/speed	/jointset/ground_pelvis/pelvis_tx/speed	/jointset/ground_pelvis/pelvis_ty/speed	/jointset/hip_l/hip_flexion_l/speed	/jointset/hip_l/hip_adduction_l/speed	/jointset/hip_l/hip_rotation_l/speed	/jointset/back/lumbar_extension/speed	/jointset/patellofemoral_l/patellar_flexion_l/speed	/jointset/knee_l/knee_flexion_l/speed	/jointset/knee_l/knee_adduction_l/speed	/jointset/knee_l/knee_rotation_l/speed	/jointset/ankle_l/ankle_angle_l/speed	/jointset/subtalar_l/subtalar_angle_l/speed	/forceset/tau_hip_flexion_l	/forceset/tau_hip_adduction_l	/forceset/tau_hip_rotation_l	/forceset/tau_knee_flexion_l	/forceset/tau_ankle_angle_l	/forceset/tau_subtalar_angle_l	/forceset/tau_lumbar_extension	lambda_cid13_p0	lambda_cid13_p1	lambda_cid13_p2	lambda_cid13_p3	lambda_cid13_p4	lambda_cid13_p5	lambda_cid14_p0	/jointset/ground_pelvis/pelvis_tilt/accel	/jointset/ground_pelvis/pelvis_tx/accel	/jointset/ground_pelvis/pelvis_ty/accel	/jointset/hip_l/hip_flexion_l/accel	/jointset/hip_l/hip_adduction_l/accel	/jointset/hip_l/hip_rotation_l/accel	/jointset/back/lumbar_extension/accel	/jointset/patellofemoral_l/patellar_flexion_l/accel	/jointset/knee_l/knee_flexion_l/accel	/jointset/knee_l/knee_adduction_l/accel	/jointset/knee_l/knee_rotation_l/accel	/jointset/ankle_l/ankle_angle_l/accel	/jointset/subtalar_l/subtalar_angle_l/accel	gamma_cid13_p0	gamma_cid13_p1	gamma_cid13_p2	gamma_cid13_p3	gamma_cid13_p4	gamma_cid13_p5	gamma_cid14_p0
0.5	-0.4523193179210951	-0.06532879213853666	0.7583060990437636	1.274787572643109	-0.3562134465380368	-0.03625052102335707	-0.4129807014590327	0.7867979052121467	0.7867979052121457	-0.05562686247048636	-0.174385940002954	0.07446525065312631	0.08673815570474952	-1.384453457997723	-0.3984291942328528	-0.5662698245235375	3.1030237380199	0.06440362804692205	0.4838639013104276	-0.2660471130713882	1.523980839803148	1.523980839803499	0.2406471544246975	0.001355086103757919	-0.07606780033300713	0.03957845955202984	-0.1819408354476734	0.01595100096318129	0.005450601166609607	-0.1406236440757191	0.08063273622801442	0.00203793743144309	0.1600821807090859	0.933443397022125	-0.319894904352476	-1.062270060667831	-7.448031047272449	-435.5911129815952	-56.35515587626618	-11.68771936424068	0.6696781118183677	0.7684227262016318	-0.3875554136497221	-2.043121153234029	0.1254901100597427	-0.4537454133668297	1.786475809429556	-1.376368026796283	-1.376368026796266	-0.5217169103491932	0.08408183645591405	-0.1744599175537495	0.08229616913433588	-4.976344391134325e-08	-1.668030720402662e-06	-6.606586932738746e-07	-3.735595066027578e-07	-2.989451061962605e-07	2.530700101705392e-07	-2.346569475567075e-07
0.51	-0.4661275170567286	-0.0692741161975745	0.7526254868136556	1.305710029732447	-0.3555642182315683	-0.03143942575518469	-0.4155534387031394	0.8019664734163583	0.8019664734172045	-0.05324569133911764	-0.1743725894915886	0.07369571821538895	0.08713691268423665	-1.377016575129565	-0.3905906101291408	-0.5697164521600162	3.081055464179511	0.06543166681279398	0.4782640550945276	-0.2485318629418215	1.509505607399865	1.509505607400093	0.2356101039726715	0.001287171159726352	-0.07783300180994365	0.04016441693577039	-0.1889594459106636	0.01654992747073451	0.004767755529756218	-0.1414959248306751	0.08268415564190508	0.00269006161764026	0.1648943944677793	1.412890374662539	-0.5332588625964895	-1.203931720036967	-7.942075444936645	-439.7141868005677	-56.44234073600089	-11.05524340466767	0.8061236185078895	0.7982434183747222	-0.3028345960023894	-2.335552705849477	0.09030778243496354	-0.6269103479321729	1.729320537996105	-1.517139235527	-1.517139235545988	-0.4916345046012388	-0.0565356499672864	-0.1767791341679397	0.04586730678845712	-7.317228567265665e-08	-1.359337984529366e-06	-2.185015330530058e-07	-2.972408420682134e-07	-3.215164928633812e-07	3.530540760410198e-07	-2.477072407099631e-07
0.52	-0.4798562613148384	-0.07313972098239782	0.7469144846757133	1.336400429642209	-0.3549049401328862	-0.02668709017342567	-0.4179519692612653	0.8169834816195491	0.8169834816196215	-0.05091427779423324	-0.1743607796259767	0.07290868798859533	0.08754135359432039	-1.368562482493645	-0.3824853393899484	-0.5723478060902499	3.056612302082646	0.06641358648172353	0.4721119639896084	-0.2312057758810251	1.49366883945932	1.493668839459425	0.2306956378419679	0.001046956610227038	-0.07956735814305008	0.0407152456713208	-0.1959780563725154	0.0171488539794015	0.004084909879216564	-0.1423682055852395	0.08473557505605039	0.003342185805044657	0.169706608227482	1.891292054627465	-0.7468245040094244	-1.345122466639108	-8.43258480910305	-443.8518360522108	-56.55037921780515	-10.42657908290811	0.8731200653726812	0.8217600532958247	-0.2245006724011803	-2.538098804529188	0.1162662906705516	-0.5641943911710372	1.748643195677133	-1.648675134248132	-1.648675134248127	-0.4972000460842747	0.0496219153621601	-0.1682908887902741	0.07527043949570789	-1.832638244626507e-07	-5.409118070577578e-07	1.369009073263122e-06	-4.976596940446452e-08	-5.310978079409329e-07	6.454738724763019e-07	-3.373607293527605e-07
0.53	-0.4934952426781443	-0.07692312911934168	0.7411812142157141	1.366834151070642	-0.3542370070498088	-0.02199305598603127	-0.420178297487084	0.8318353985775545	0.8318353985773111	-0.04863677143236743	-0.1743486946936634	0.0721040991420034	0.08794993591373043	-1.359052630442637	-0.3741720663300686	-0.5741725068613732	3.029747414997817	0.06717613992686348	0.4665561786021378	-0.2140986540939115	1.476517138940368	1.476517138940278	0.2248875963171157	0.001306632510591443	-0.08134931484446099	0.04100645170352871	-0.2034099074936672	0.01784031900992784	0.003399607520788423	-0.1423901266856839	0.0853813706251937	0.003993441722699259	0.1746850837141745	1.91233490801416	-0.9218489839834292	-1.444579512278182	-8.455499109874253	-447.9483025341908	-56.52224874521497	-9.802590910173718	1.017046998221729	0.8397602222430398	-0.1415161594545054	-2.818427016352618	0.05649911014687369	-0.5724105987149368	1.685928950834161	-1.777952595914164	-1.777952595943863	-0.6103061632222446	0.005077889705207766	-0.1829805753130549	0.006587585812673524	-2.344274273920429e-07	-5.80661826685005e-08	2.202575242584931e-06	8.704820544744448e-08	-6.181790049705486e-07	8.053895742500789e-07	-3.741708092566642e-07
0.54	-0.5070336996763225	-0.08062267466770891	0.7354336844720067	1.396987674957065	-0.3535613985845605	-0.01735880764979798	-0.4222347180388887	0.846509891513068	0.8465098915130875	-0.04641488547571668	-0.1743358255105211	0.07128172422550043	0.0883615386736087	-1.34845760946111	-0.3657128216746265	-0.5751996628317175	3.000572793677326	0.06794866292055456	0.4601547937674053	-0.1972242410823922	1.458184035013617	1.458184035013331	0.2195715564907472	0.001203806904261409	-0.08312457212574495	0.04131933376490823	-0.2108417586144346	0.01853178404011173	0.002714305168203015	-0.1424120477862529	0.08602716619417576	0.004644697639915546	0.1796635592013535	1.933660941403824	-1.099026494171161	-1.541289773975463	-8.49828807802227	-452.048669877816	-56.57094334839987	-9.184308452695809	1.090153851478732	0.8509543724066416	-0.06499171224577348	-3.000045651661109	0.1182602003813297	-0.7333142806235471	1.702101440559803	-1.884955815807889	-1.884955815807881	-0.3987997063870835	-0.02287838597697926	-0.166951004767196	0.07960564532947503	-2.203941651139601e-07	5.349882979985431e-08	2.201990119913015e-06	1.014292678266782e-07	-5.697281565003188e-07	8.187050010792102e-07	-3.525158411941314e-07
